<?xml version="1.0" encoding="utf-8"?>
<svg xmlns="http://www.w3.org/2000/svg" xmlns:xlink="http://www.w3.org/1999/xlink" style="margin: auto; background: rgb(255, 255, 255); display: block; shape-rendering: auto;" width="105px" height="105px" viewBox="0 0 100 100" preserveAspectRatio="xMidYMid">
<g transform="translate(50 50)">
<g>
<animateTransform attributeName="transform" type="rotate" values="0;40" keyTimes="0;1" dur="0.14326647564469916s" repeatCount="indefinite"></animateTransform><path d="M31.808017857137845 -3.5 L43.80801785713784 -3.5 L43.80801785713784 3.5 L31.808017857137845 3.5 A32 32 0 0 1 26.61611195999256 17.76464421633997 L26.61611195999256 17.76464421633997 L35.8086452774203 25.478095532578443 L31.309132009614515 30.84040663441129 L22.11659869218678 23.12695531817282 A32 32 0 0 1 8.970231471631898 30.717013971825853 L8.970231471631898 30.717013971825853 L11.054009603635063 42.53470700797235 L4.160355332549605 43.750244251640865 L2.076577200546439 31.932551215494367 A32 32 0 0 1 -12.872920015323379 29.29655150831044 L-12.872920015323379 29.29655150831044 L-18.872920015323373 39.68885635372371 L-24.935097841814443 36.18885635372371 L-18.935097841814446 25.796551508310444 A32 32 0 0 1 -28.692689160538993 14.167906999154395 L-28.692689160538993 14.167906999154395 L-39.969000609969896 18.27214871906242 L-42.363141613249574 11.694300373561074 L-31.08683016381867 7.590058653653047 A32 32 0 0 1 -31.086830163818675 -7.59005865365304 L-31.086830163818675 -7.59005865365304 L-42.363141613249574 -11.694300373561063 L-39.969000609969896 -18.27214871906241 L-28.692689160538997 -14.167906999154388 A32 32 0 0 1 -18.935097841814475 -25.796551508310422 L-18.935097841814475 -25.796551508310422 L-24.935097841814482 -36.18885635372368 L-18.8729200153234 -39.68885635372369 L-12.872920015323393 -29.296551508310433 A32 32 0 0 1 2.0765772005464167 -31.932551215494367 L2.0765772005464167 -31.932551215494367 L4.160355332549576 -43.750244251640865 L11.054009603635048 -42.53470700797235 L8.97023147163189 -30.717013971825853 A32 32 0 0 1 22.11659869218677 -23.12695531817283 L22.11659869218677 -23.12695531817283 L31.3091320096145 -30.840406634411302 L35.80864527742029 -25.47809553257845 L26.616111959992555 -17.764644216339974 A32 32 0 0 1 31.80801785713784 -3.500000000000016 M0 -20A20 20 0 1 0 0 20 A20 20 0 1 0 0 -20" fill="#ff0d6b"></path></g></g>
<!-- [ldio] generated by https://loading.io/ --></svg>